HIERARCHY
ROOT Joint1
{
	OFFSET 0.000000 0.000000 0.000000
	CHANNELS 6 Xposition Yposition Zposition Xrotation Yrotation Zrotation
	JOINT Joint2
	{
		OFFSET -0.000000 0.000000 1.456275
		CHANNELS 6 Xposition Yposition Zposition Xrotation Yrotation Zrotation
		JOINT Joint3
		{
			OFFSET -0.000000 0.000002 1.471446
			CHANNELS 6 Xposition Yposition Zposition Xrotation Yrotation Zrotation
			JOINT Joint4
			{
				OFFSET 0.625745 0.000000 0.917755
				CHANNELS 6 Xposition Yposition Zposition Xrotation Yrotation Zrotation
				JOINT Joint5
				{
					OFFSET -0.629534 0.000001 0.940221
					CHANNELS 6 Xposition Yposition Zposition Xrotation Yrotation Zrotation
					JOINT Joint6
					{
						OFFSET -0.000001 0.113772 1.960660
						CHANNELS 6 Xposition Yposition Zposition Xrotation Yrotation Zrotation
						JOINT Joint7
						{
							OFFSET -0.669733 -0.113771 0.388340
							CHANNELS 6 Xposition Yposition Zposition Xrotation Yrotation Zrotation
							End Site
							{
								OFFSET 0.005509 0.005509 0.438980
							}
						}
					}
				}
			}
		}
	}
}
MOTION
Frames: 12
Frame Time: 0.041667
0.000000 0.000000 0.000000 -0.000000 1.019410 -0.018202 -0.000000 -0.000000 1.456275 0.000000 -44.960212 0.000000 -0.000001 0.000002 1.471446 0.000000 -1.133460 -0.006606 0.625745 0.000000 0.917755 0.000004 135.008511 -0.000001 -0.629534 0.000001 0.940221 0.000000 1.709737 -0.031307 -0.000001 0.113772 1.960660 -88.311539 89.975468 -0.005165 -0.669733 -0.113771 0.388339 -0.705126 3.566198 134.961587 
0.000000 0.000000 0.000000 -0.000000 1.019410 -0.064460 -0.000000 0.000000 1.456275 0.000000 -44.909361 0.000000 -0.000000 0.000002 1.471446 -0.000000 -1.133458 0.057734 0.625744 0.000000 0.917755 0.000004 134.976518 -0.000001 -0.629533 0.000001 0.940221 0.000000 1.709736 -0.067088 -0.000001 0.113772 1.960660 -88.314114 89.981848 -0.006763 -0.669733 -0.113771 0.388341 -0.704641 3.566198 134.934294 
0.000000 0.000000 0.000000 -0.000000 1.019410 -0.141010 -0.000000 0.000000 1.456275 -0.000000 -44.825217 0.000000 -0.000000 0.000002 1.471446 -0.000000 -1.133454 0.164207 0.625745 0.000000 0.917755 0.000004 134.923571 -0.000001 -0.629533 0.000001 0.940221 -0.000000 1.709736 -0.126300 -0.000001 0.113772 1.960660 -88.327508 89.992401 -0.015351 -0.669733 -0.113771 0.388339 -0.703839 3.566196 134.889119 
0.000000 0.000000 0.000000 -0.000000 1.019410 -0.247405 -0.000000 0.000000 1.456275 0.000000 -44.708274 -0.000000 -0.000000 0.000002 1.471445 0.000000 -1.133458 0.312190 0.625745 0.000000 0.917755 0.000004 134.849982 -0.000001 -0.629534 0.000001 0.940221 -0.000000 1.709736 -0.208598 -0.000001 0.113772 1.960660 -88.278119 90.007079 0.016768 -0.669733 -0.113771 0.388340 -0.702723 3.566193 134.826336 
0.000000 0.000000 0.000000 -0.000000 1.019410 -0.383197 -0.000000 -0.000000 1.456275 0.000000 -44.559010 0.000000 -0.000000 0.000002 1.471446 0.000000 -1.133459 0.501061 0.625745 0.000000 0.917755 0.000004 134.756040 -0.000001 -0.629534 0.000001 0.940221 0.000000 1.709736 -0.313634 -0.000001 0.113772 1.960660 -88.296205 90.025800 0.005132 -0.669733 -0.113771 0.388340 -0.701300 3.566188 134.746191 
0.000000 0.000000 0.000000 -0.000000 1.019410 -0.547939 -0.000000 0.000000 1.456275 -0.000000 -44.377921 -0.000000 -0.000000 0.000002 1.471445 0.000000 -1.133456 0.730198 0.625745 0.000000 0.917754 0.000004 134.642085 -0.000001 -0.629534 0.000001 0.940221 0.000000 1.709736 -0.441064 -0.000001 0.113772 1.960660 -88.299880 90.048511 0.002442 -0.669733 -0.113771 0.388340 -0.699573 3.566179 134.648970 
0.000000 0.000000 0.000000 -0.000000 1.019410 -0.741183 -0.000000 0.000000 1.456275 -0.000000 -44.165509 -0.000000 -0.000000 0.000002 1.471445 0.000000 -1.133458 0.998979 0.625744 0.000000 0.917755 0.000004 134.508418 -0.000001 -0.629534 0.000001 0.940221 0.000000 1.709737 -0.590540 -0.000000 0.113772 1.960660 -88.301580 90.075162 0.001820 -0.669733 -0.113771 0.388341 -0.697548 3.566164 134.534946 
0.000000 0.000000 0.000000 -0.000000 1.019410 -0.962483 -0.000000 0.000000 1.456275 -0.000000 -43.922255 -0.000000 -0.000000 0.000002 1.471446 -0.000000 -1.133458 1.306782 0.625744 0.000000 0.917755 0.000003 134.355340 -0.000001 -0.629534 0.000001 0.940221 0.000000 1.709737 -0.761718 -0.000001 0.113772 1.960660 -88.301915 90.105666 0.001318 -0.669733 -0.113771 0.388340 -0.695229 3.566143 134.404367 
0.000000 0.000000 0.000000 -0.000000 1.019410 -1.211390 -0.000000 0.000000 1.456275 -0.000000 -43.648659 0.000000 -0.000000 0.000002 1.471445 0.000000 -1.133459 1.652985 0.625745 0.000000 0.917755 0.000004 134.183164 -0.000001 -0.629534 0.000001 0.940221 0.000000 1.709736 -0.954250 -0.000001 0.113772 1.960661 -88.302455 90.139994 0.000886 -0.669733 -0.113771 0.388340 -0.692620 3.566113 134.257477 
0.000000 0.000000 0.000000 -0.000000 1.019410 -1.487458 -0.000000 0.000000 1.456275 -0.000000 -43.345200 -0.000000 -0.000000 0.000002 1.471446 0.000000 -1.133459 2.036964 0.625745 0.000000 0.917755 0.000003 133.992206 -0.000001 -0.629534 0.000001 0.940221 0.000000 1.709736 -1.167791 -0.000001 0.113772 1.960660 -88.302871 90.178059 0.000759 -0.669733 -0.113771 0.388340 -0.689726 3.566071 134.094549 
0.000000 0.000000 0.000000 -0.000000 1.019410 -1.790239 -0.000000 -0.000000 1.456275 0.000000 -43.012382 -0.000000 -0.000000 0.000002 1.471446 0.000000 -1.133461 2.458099 0.625745 0.000000 0.917755 0.000004 133.782779 -0.000001 -0.629534 0.000001 0.940221 0.000000 1.709736 -1.401996 -0.000001 0.113772 1.960660 -88.302960 90.219805 0.000536 -0.669733 -0.113771 0.388339 -0.686553 3.566017 133.915885 
0.000000 0.000000 0.000000 -0.000000 1.019410 -2.119287 -0.000000 -0.000000 1.456275 -0.000000 -42.650689 0.000000 -0.000001 0.000002 1.471446 0.000000 -1.133466 2.915766 0.625745 0.000000 0.917755 0.000004 133.555169 -0.000001 -0.629534 0.000001 0.940221 0.000000 1.709736 -1.656517 -0.000001 0.113772 1.960661 -88.303138 90.265178 0.000492 -0.669733 -0.113771 0.388340 -0.683105 3.565945 133.721703 
